<svg id="visual" viewBox="0 0 900 600" width="900" height="600" xmlns="http://www.w3.org/2000/svg" xmlns:xlink="http://www.w3.org/1999/xlink" version="1.1"><rect x="0" y="0" width="900" height="600" fill="#276792"></rect><path d="M0 202L16.7 192.7C33.3 183.3 66.7 164.7 100 155.8C133.3 147 166.7 148 200 149.2C233.3 150.3 266.7 151.7 300 156.8C333.3 162 366.7 171 400 170.7C433.3 170.3 466.7 160.7 500 158.5C533.3 156.3 566.7 161.7 600 170.3C633.3 179 666.7 191 700 192.5C733.3 194 766.7 185 800 179.8C833.3 174.7 866.7 173.3 883.3 172.7L900 172L900 0L883.3 0C866.7 0 833.3 0 800 0C766.7 0 733.3 0 700 0C666.7 0 633.3 0 600 0C566.7 0 533.3 0 500 0C466.7 0 433.3 0 400 0C366.7 0 333.3 0 300 0C266.7 0 233.3 0 200 0C166.7 0 133.3 0 100 0C66.7 0 33.3 0 16.7 0L0 0Z" fill="#00aaff"></path><path d="M0 141L16.7 143.8C33.3 146.7 66.7 152.3 100 148.8C133.3 145.3 166.7 132.7 200 125C233.3 117.3 266.7 114.7 300 115C333.3 115.3 366.7 118.7 400 126.5C433.3 134.3 466.7 146.7 500 154.3C533.3 162 566.7 165 600 163.8C633.3 162.7 666.7 157.3 700 156.5C733.3 155.7 766.7 159.3 800 156C833.3 152.7 866.7 142.3 883.3 137.2L900 132L900 0L883.3 0C866.7 0 833.3 0 800 0C766.7 0 733.3 0 700 0C666.7 0 633.3 0 600 0C566.7 0 533.3 0 500 0C466.7 0 433.3 0 400 0C366.7 0 333.3 0 300 0C266.7 0 233.3 0 200 0C166.7 0 133.3 0 100 0C66.7 0 33.3 0 16.7 0L0 0Z" fill="#65b8fd"></path><path d="M0 109L16.7 112C33.3 115 66.7 121 100 123C133.3 125 166.7 123 200 116.8C233.3 110.7 266.7 100.3 300 99C333.3 97.7 366.7 105.3 400 104.2C433.3 103 466.7 93 500 89C533.3 85 566.7 87 600 92.2C633.3 97.3 666.7 105.7 700 106.8C733.3 108 766.7 102 800 101.5C833.3 101 866.7 106 883.3 108.5L900 111L900 0L883.3 0C866.7 0 833.3 0 800 0C766.7 0 733.3 0 700 0C666.7 0 633.3 0 600 0C566.7 0 533.3 0 500 0C466.7 0 433.3 0 400 0C366.7 0 333.3 0 300 0C266.7 0 233.3 0 200 0C166.7 0 133.3 0 100 0C66.7 0 33.3 0 16.7 0L0 0Z" fill="#91c6fa"></path><path d="M0 71L16.7 69.8C33.3 68.7 66.7 66.3 100 67.5C133.3 68.7 166.7 73.3 200 71.7C233.3 70 266.7 62 300 62.2C333.3 62.3 366.7 70.7 400 76.2C433.3 81.7 466.7 84.3 500 85.7C533.3 87 566.7 87 600 85C633.3 83 666.7 79 700 76.7C733.3 74.3 766.7 73.7 800 71.3C833.3 69 866.7 65 883.3 63L900 61L900 0L883.3 0C866.7 0 833.3 0 800 0C766.7 0 733.3 0 700 0C666.7 0 633.3 0 600 0C566.7 0 533.3 0 500 0C466.7 0 433.3 0 400 0C366.7 0 333.3 0 300 0C266.7 0 233.3 0 200 0C166.7 0 133.3 0 100 0C66.7 0 33.3 0 16.7 0L0 0Z" fill="#b4d4f8"></path><path d="M0 21L16.7 24C33.3 27 66.7 33 100 37.2C133.3 41.3 166.7 43.7 200 43.7C233.3 43.7 266.7 41.3 300 41C333.3 40.7 366.7 42.3 400 44.2C433.3 46 466.7 48 500 45.3C533.3 42.7 566.7 35.3 600 33.7C633.3 32 666.7 36 700 37.5C733.3 39 766.7 38 800 35.3C833.3 32.7 866.7 28.3 883.3 26.2L900 24L900 0L883.3 0C866.7 0 833.3 0 800 0C766.7 0 733.3 0 700 0C666.7 0 633.3 0 600 0C566.7 0 533.3 0 500 0C466.7 0 433.3 0 400 0C366.7 0 333.3 0 300 0C266.7 0 233.3 0 200 0C166.7 0 133.3 0 100 0C66.7 0 33.3 0 16.7 0L0 0Z" fill="#d4e3f5"></path></svg>