<svg id="visual" viewBox="0 0 900 600" width="900" height="600" xmlns="http://www.w3.org/2000/svg" xmlns:xlink="http://www.w3.org/1999/xlink" version="1.1"><rect x="0" y="0" width="900" height="600" fill="#276792"></rect><path d="M0 171L13.7 172C27.3 173 54.7 175 82 172.5C109.3 170 136.7 163 163.8 160.5C191 158 218 160 245.2 169.5C272.3 179 299.7 196 327 195.3C354.3 194.7 381.7 176.3 409 167.7C436.3 159 463.7 160 491 162.8C518.3 165.7 545.7 170.3 573 177.8C600.3 185.3 627.7 195.7 654.8 200.3C682 205 709 204 736.2 195.8C763.3 187.7 790.7 172.3 818 172.5C845.3 172.7 872.7 188.3 886.3 196.2L900 204L900 0L886.3 0C872.7 0 845.3 0 818 0C790.7 0 763.3 0 736.2 0C709 0 682 0 654.8 0C627.7 0 600.3 0 573 0C545.7 0 518.3 0 491 0C463.7 0 436.3 0 409 0C381.7 0 354.3 0 327 0C299.7 0 272.3 0 245.2 0C218 0 191 0 163.8 0C136.7 0 109.3 0 82 0C54.7 0 27.3 0 13.7 0L0 0Z" fill="#00aaff"></path><path d="M0 123L13.7 122.2C27.3 121.3 54.7 119.7 82 118C109.3 116.3 136.7 114.7 163.8 119.5C191 124.3 218 135.7 245.2 136.8C272.3 138 299.7 129 327 124.7C354.3 120.3 381.7 120.7 409 121.5C436.3 122.3 463.7 123.7 491 127.3C518.3 131 545.7 137 573 136.2C600.3 135.3 627.7 127.7 654.8 129.8C682 132 709 144 736.2 146.3C763.3 148.7 790.7 141.3 818 140.7C845.3 140 872.7 146 886.3 149L900 152L900 0L886.3 0C872.7 0 845.3 0 818 0C790.7 0 763.3 0 736.2 0C709 0 682 0 654.8 0C627.7 0 600.3 0 573 0C545.7 0 518.3 0 491 0C463.7 0 436.3 0 409 0C381.7 0 354.3 0 327 0C299.7 0 272.3 0 245.2 0C218 0 191 0 163.8 0C136.7 0 109.3 0 82 0C54.7 0 27.3 0 13.7 0L0 0Z" fill="#6fbbfd"></path><path d="M0 123L13.7 121.7C27.3 120.3 54.7 117.7 82 116.2C109.3 114.7 136.7 114.3 163.8 118C191 121.7 218 129.3 245.2 128C272.3 126.7 299.7 116.3 327 114C354.3 111.7 381.7 117.3 409 121.3C436.3 125.3 463.7 127.7 491 121.5C518.3 115.3 545.7 100.7 573 95.3C600.3 90 627.7 94 654.8 101.2C682 108.3 709 118.7 736.2 123.8C763.3 129 790.7 129 818 121.3C845.3 113.7 872.7 98.3 886.3 90.7L900 83L900 0L886.3 0C872.7 0 845.3 0 818 0C790.7 0 763.3 0 736.2 0C709 0 682 0 654.8 0C627.7 0 600.3 0 573 0C545.7 0 518.3 0 491 0C463.7 0 436.3 0 409 0C381.7 0 354.3 0 327 0C299.7 0 272.3 0 245.2 0C218 0 191 0 163.8 0C136.7 0 109.3 0 82 0C54.7 0 27.3 0 13.7 0L0 0Z" fill="#a0cdfb"></path><path d="M0 86L13.7 84.3C27.3 82.7 54.7 79.3 82 74.3C109.3 69.3 136.7 62.7 163.8 60.3C191 58 218 60 245.2 67.3C272.3 74.7 299.7 87.3 327 84.8C354.3 82.3 381.7 64.7 409 60.5C436.3 56.3 463.7 65.7 491 69.2C518.3 72.7 545.7 70.3 573 68.5C600.3 66.7 627.7 65.3 654.8 64.8C682 64.3 709 64.7 736.2 62.2C763.3 59.7 790.7 54.3 818 52.5C845.3 50.7 872.7 52.3 886.3 53.2L900 54L900 0L886.3 0C872.7 0 845.3 0 818 0C790.7 0 763.3 0 736.2 0C709 0 682 0 654.8 0C627.7 0 600.3 0 573 0C545.7 0 518.3 0 491 0C463.7 0 436.3 0 409 0C381.7 0 354.3 0 327 0C299.7 0 272.3 0 245.2 0C218 0 191 0 163.8 0C136.7 0 109.3 0 82 0C54.7 0 27.3 0 13.7 0L0 0Z" fill="#c8dff9"></path><path d="M0 35L13.7 38C27.3 41 54.7 47 82 51C109.3 55 136.7 57 163.8 55C191 53 218 47 245.2 43.5C272.3 40 299.7 39 327 35C354.3 31 381.7 24 409 20.8C436.3 17.7 463.7 18.3 491 25.5C518.3 32.7 545.7 46.3 573 47.5C600.3 48.7 627.7 37.3 654.8 36.7C682 36 709 46 736.2 45.7C763.3 45.3 790.7 34.7 818 31C845.3 27.3 872.7 30.7 886.3 32.3L900 34L900 0L886.3 0C872.7 0 845.3 0 818 0C790.7 0 763.3 0 736.2 0C709 0 682 0 654.8 0C627.7 0 600.3 0 573 0C545.7 0 518.3 0 491 0C463.7 0 436.3 0 409 0C381.7 0 354.3 0 327 0C299.7 0 272.3 0 245.2 0C218 0 191 0 163.8 0C136.7 0 109.3 0 82 0C54.7 0 27.3 0 13.7 0L0 0Z" fill="#edf1f6"></path></svg>